<svg width="188" height="45" viewBox="0 0 188 45" fill="none" xmlns="http://www.w3.org/2000/svg">
<g clip-path="url(#clip0)">
<path d="M70.1724 2.1546C70.3598 2.13531 70.5493 2.15733 70.7269 2.21904C70.9045 2.28075 71.0659 2.3806 71.1991 2.51128C71.3324 2.64197 71.4342 2.8002 71.4971 2.97442C71.56 3.14863 71.5825 3.33443 71.5628 3.51824L72.2163 19.0773H68.6847L68.1286 5.05233H67.6767L64.8959 15.6069C64.849 15.9554 64.6665 16.2727 64.3867 16.4925C64.1069 16.7123 63.7514 16.8176 63.3943 16.7864H60.989C60.6257 16.822 60.2624 16.7194 59.9739 16.5C59.6855 16.2805 59.4939 15.9608 59.4387 15.6069L56.6579 5.05233H56.2339L55.7055 19.091H52.1392L52.7927 3.53187C52.7748 3.34543 52.7996 3.15743 52.8654 2.98164C52.9312 2.80584 53.0363 2.64671 53.1729 2.51594C53.3096 2.38517 53.4744 2.28608 53.6552 2.22591C53.836 2.16574 54.0283 2.14603 54.2178 2.16823H57.7981C58.1583 2.13745 58.5166 2.24555 58.797 2.46959C59.0773 2.69362 59.2576 3.01597 59.2997 3.36824L61.5243 11.8841C61.6262 12.275 61.7097 12.6728 61.7745 13.0773C61.8394 13.4819 61.9136 13.8864 61.997 14.291H62.3237C62.4072 13.8819 62.486 13.4773 62.5601 13.0773C62.6343 12.6773 62.713 12.2728 62.7965 11.8637L65.0002 3.36824C65.0422 3.01597 65.2226 2.69362 65.5029 2.46959C65.7833 2.24555 66.1416 2.13745 66.5018 2.16823L70.1724 2.1546Z" fill="#EEEEEE"/>
<path d="M84.4376 2.15443C84.7387 2.15022 85.0326 2.24443 85.2731 2.4222C85.5135 2.59998 85.6867 2.85121 85.7654 3.13625L90.7708 19.0908H86.8639L83.3323 6.64761L83.1307 5.80216C83.0611 5.5158 83.0032 5.24078 82.9569 4.97715H82.2617C82.2107 5.24078 82.1574 5.5158 82.1018 5.80216C82.0462 6.08853 81.9743 6.37034 81.8863 6.64761L78.3756 19.0908H74.4478L79.4809 3.13625C79.5627 2.86289 79.7337 2.62338 79.9676 2.45443C80.2084 2.27274 80.5049 2.17659 80.8087 2.18171L84.4376 2.15443ZM87.0933 11.8022V14.6249H78.1253V11.8022H87.0933Z" fill="#EEEEEE"/>
<path d="M105.405 2.15442L99.5719 13.7453H95.9708L90.1173 2.15442H94.0938L96.9997 8.38623C97.1545 8.72765 97.2801 9.08116 97.3751 9.44306C97.477 9.82033 97.5697 10.1794 97.6532 10.5203H97.9034C98.0054 10.1749 98.105 9.81578 98.2024 9.44306C98.2956 9.08401 98.4117 8.73103 98.55 8.38623L101.428 2.15442H105.405ZM99.6762 11.434V19.0908H95.8457V11.434H99.6762Z" fill="#EEEEEE"/>
<path d="M114.741 2.15461C115.047 2.14421 115.347 2.23557 115.593 2.41383C115.839 2.59208 116.017 2.84675 116.097 3.13643L121.102 19.091H117.195L113.663 6.64779L113.462 5.80234C113.392 5.51597 113.334 5.24096 113.288 4.97732H112.593C112.542 5.24096 112.489 5.51597 112.433 5.80234C112.377 6.0887 112.306 6.37051 112.217 6.64779L108.686 19.091H104.758L109.791 3.13643C109.873 2.86307 110.044 2.62356 110.278 2.45461C110.519 2.27291 110.815 2.17676 111.119 2.18189L114.741 2.15461ZM117.397 11.8023V14.6251H108.45V11.8023H117.397Z" fill="#EEEEEE"/>
<path d="M127.456 2.15442V6.92715C127.456 7.4817 127.414 8.03549 127.331 8.58396C127.247 9.13129 127.112 9.66992 126.928 10.1931C127.062 10.7022 127.183 11.2226 127.289 11.7544C127.392 12.2435 127.446 12.7414 127.449 13.2408V19.0908H123.646V2.15442H127.456ZM129.409 8.9726V11.5908H126.309V8.98623L129.409 8.9726ZM137.342 2.15442L132.837 8.9726C132.669 9.24934 132.468 9.50566 132.239 9.73623C132.038 9.93439 131.819 10.1146 131.585 10.2749V10.3499C131.861 10.5126 132.113 10.7097 132.336 10.9362C132.592 11.1824 132.812 11.4624 132.99 11.7681L137.647 19.0908H133.365L128.033 10.2271L133.212 2.15442H137.342Z" fill="#EEEEEE"/>
<path d="M146.553 1.81361C147.727 1.78894 148.898 1.93367 150.029 2.24316C150.916 2.49092 151.71 2.98596 152.316 3.66816C152.956 4.46366 153.39 5.39944 153.581 6.39543C154.115 9.20991 154.115 12.0968 153.581 14.9113C153.39 15.9073 152.956 16.8431 152.316 17.6386C151.71 18.3208 150.916 18.8158 150.029 19.0636C147.748 19.6353 145.357 19.6353 143.077 19.0636C142.187 18.8129 141.389 18.3186 140.776 17.6386C140.127 16.8467 139.688 15.9098 139.497 14.9113C138.963 12.0968 138.963 9.20991 139.497 6.39543C139.688 5.39692 140.127 4.46011 140.776 3.66816C141.389 2.9882 142.187 2.49387 143.077 2.24316C144.208 1.93367 145.379 1.78894 146.553 1.81361ZM146.553 4.78633C145.819 4.74073 145.09 4.92198 144.467 5.30452C143.91 5.75398 143.537 6.38607 143.417 7.08407C143 9.42768 143 11.8245 143.417 14.1682C143.535 14.8707 143.908 15.5077 144.467 15.9613C145.09 16.3439 145.819 16.5251 146.553 16.4795C147.27 16.5174 147.982 16.3363 148.59 15.9613C149.149 15.5077 149.522 14.8707 149.639 14.1682C150.057 11.8245 150.057 9.42768 149.639 7.08407C149.519 6.38628 149.147 5.75439 148.59 5.30452C147.983 4.92474 147.272 4.73893 146.553 4.7727V4.78633Z" fill="#EEEEEE"/>
<path d="M171.58 2.15442L166.845 18.0612C166.765 18.3504 166.595 18.6078 166.359 18.7976C166.116 18.9932 165.811 19.0972 165.497 19.0908H162.021C161.698 19.1007 161.382 18.9967 161.131 18.7976C160.894 18.6119 160.73 18.3518 160.665 18.0612L155.938 2.15442H159.893L163.05 14.3794C163.115 14.6885 163.186 15.0044 163.265 15.3272C163.342 15.6476 163.404 15.9612 163.453 16.2749H164.065C164.113 15.9612 164.176 15.6476 164.252 15.3203C164.329 14.9931 164.405 14.6726 164.489 14.3658L167.617 2.16805L171.58 2.15442Z" fill="#EEEEEE"/>
<path d="M181.667 2.15443C181.968 2.15022 182.262 2.24443 182.502 2.4222C182.743 2.59998 182.916 2.85121 182.995 3.13625L188 19.0908H184.093L180.562 6.64761L180.36 5.80216C180.29 5.5158 180.232 5.24078 180.186 4.97715H179.491C179.44 5.24078 179.387 5.5158 179.331 5.80216C179.275 6.08853 179.204 6.37034 179.115 6.64761L175.605 19.0908H171.712L176.745 3.13625C176.827 2.86289 176.998 2.62338 177.232 2.45443C177.472 2.27274 177.769 2.17659 178.073 2.18171L181.667 2.15443ZM184.322 11.8022V14.6249H175.355V11.8022H184.322Z" fill="#EEEEEE"/>
<path d="M60.7317 25.3363C61.0328 25.3321 61.3267 25.4263 61.5671 25.6041C61.8076 25.7819 61.9808 26.0331 62.0595 26.3181L67.0649 42.2727H63.1579L59.6264 29.8295L59.4247 28.984C59.3552 28.6977 59.2973 28.4227 59.2509 28.159H58.5558C58.5048 28.4227 58.4515 28.6977 58.3959 28.984C58.3403 29.2704 58.2684 29.5522 58.1804 29.8295L54.6766 42.2727H50.7488L55.782 26.3181C55.8638 26.0448 56.0347 25.8053 56.2686 25.6363C56.5094 25.4546 56.806 25.3585 57.1098 25.3636L60.7317 25.3363ZM63.3873 34.984V37.8068H54.4263V34.984H63.3873Z" fill="#EEEEEE"/>
<path d="M84.236 25.3364V40.9091C84.2657 41.0948 84.2503 41.2848 84.1909 41.4636C84.1315 41.6423 84.0299 41.8048 83.8944 41.9377C83.7589 42.0706 83.5932 42.1702 83.411 42.2285C83.2287 42.2867 83.035 42.3019 82.8457 42.2728H80.7601C80.4184 42.2979 80.0792 42.1983 79.8077 41.9932C79.5536 41.7527 79.3505 41.4654 79.2098 41.1478L74.4269 32.2841C74.2276 31.9068 74.0306 31.4887 73.836 31.0296C73.6413 30.5705 73.4791 30.1296 73.3494 29.7068H73.0713C73.1223 30.1614 73.164 30.6159 73.1964 31.0705C73.2289 31.525 73.2451 31.9796 73.2451 32.4341V42.2728H69.6162V26.6864C69.5896 26.5012 69.6071 26.3125 69.6676 26.1351C69.728 25.9578 69.8297 25.7966 69.9645 25.6644C70.0994 25.5321 70.2637 25.4324 70.4445 25.3732C70.6254 25.3139 70.8178 25.2966 71.0066 25.3228H73.0922C73.4209 25.2993 73.7464 25.3993 74.0029 25.6023C74.2539 25.8483 74.4607 26.1341 74.6146 26.4478L79.2515 35.0796C79.4508 35.4569 79.6594 35.875 79.8772 36.3341C80.095 36.7932 80.3036 37.2682 80.5029 37.7591H80.8018C80.7508 37.2682 80.7137 36.7887 80.6906 36.3205C80.6674 35.8523 80.6558 35.3977 80.6558 34.9568V25.3568L84.236 25.3364Z" fill="#EEEEEE"/>
<path d="M103.104 25.3364V40.9091C103.133 41.0948 103.118 41.2848 103.058 41.4636C102.999 41.6423 102.897 41.8048 102.762 41.9377C102.626 42.0706 102.461 42.1702 102.278 42.2285C102.096 42.2867 101.903 42.3019 101.713 42.2728H99.6276C99.2858 42.2979 98.9467 42.1983 98.6752 41.9932C98.4211 41.7527 98.2179 41.4654 98.0773 41.1478L93.2944 32.2841C93.0951 31.9068 92.8981 31.4887 92.7035 31.0296C92.5088 30.5705 92.3466 30.1296 92.2169 29.7068H91.9388C91.9898 30.1614 92.0315 30.6159 92.0639 31.0705C92.0964 31.525 92.1126 31.9796 92.1126 32.4341V42.2728H88.4837V26.6864C88.457 26.5012 88.4746 26.3125 88.5351 26.1351C88.5955 25.9578 88.6972 25.7966 88.832 25.6644C88.9668 25.5321 89.1312 25.4324 89.312 25.3732C89.4929 25.3139 89.6853 25.2966 89.8741 25.3228H91.9596C92.2884 25.2993 92.6139 25.3993 92.8703 25.6023C93.1214 25.8483 93.3282 26.1341 93.4821 26.4478L98.1121 35.0659C98.3114 35.4432 98.5199 35.8614 98.7377 36.3205C98.9556 36.7796 99.1641 37.2546 99.3634 37.7455H99.6623C99.6113 37.2546 99.5743 36.775 99.5511 36.3068C99.5279 35.8387 99.5163 35.3841 99.5163 34.9432V25.3432L103.104 25.3364Z" fill="#EEEEEE"/>
<path d="M115.617 25.3363C115.918 25.3321 116.212 25.4263 116.452 25.6041C116.693 25.7819 116.866 26.0331 116.945 26.3181L121.95 42.2727H118.043L114.512 29.8295L114.31 28.984C114.24 28.6977 114.183 28.4227 114.136 28.159H113.441C113.39 28.4227 113.337 28.6977 113.281 28.984C113.226 29.2704 113.154 29.5522 113.066 29.8295L109.562 42.2727H105.634L110.667 26.3181C110.749 26.0448 110.92 25.8053 111.154 25.6363C111.395 25.4546 111.691 25.3585 111.995 25.3636L115.617 25.3363ZM118.273 34.984V37.8068H109.312V34.984H118.273Z" fill="#EEEEEE"/>
<path d="M23.8519 19.3159C23.7533 19.2971 23.6518 19.2975 23.5534 19.3172C23.455 19.3368 23.3615 19.3752 23.2782 19.4303C23.1949 19.4854 23.1235 19.556 23.0681 19.6382C23.0126 19.7204 22.9742 19.8124 22.9551 19.9091C22.8186 20.6361 22.4767 21.3109 21.9684 21.8567C21.46 22.4024 20.8057 22.7973 20.0798 22.9962C19.3539 23.1952 18.5856 23.1902 17.8625 22.982C17.1393 22.7737 16.4903 22.3705 15.9893 21.8182C15.9217 21.7452 15.8402 21.686 15.7493 21.644C15.6584 21.6019 15.5599 21.5778 15.4596 21.5731C15.3592 21.5683 15.2588 21.583 15.1642 21.6163C15.0696 21.6496 14.9827 21.7008 14.9083 21.7671C14.8339 21.8333 14.7735 21.9133 14.7306 22.0025C14.6877 22.0916 14.6631 22.1882 14.6583 22.2866C14.6535 22.3851 14.6684 22.4835 14.7024 22.5763C14.7363 22.669 14.7886 22.7543 14.8561 22.8273C15.7057 23.7443 16.8482 24.3502 18.0957 24.5455C17.8303 25.0046 17.4451 25.3862 16.9796 25.6511C16.5141 25.9159 15.9852 26.0544 15.447 26.0523C15.2442 26.0523 15.0497 26.1313 14.9063 26.272C14.7629 26.4126 14.6823 26.6034 14.6823 26.8023C14.6823 27.0012 14.7629 27.192 14.9063 27.3327C15.0497 27.4733 15.2442 27.5523 15.447 27.5523C16.3929 27.5561 17.3165 27.2705 18.0891 26.7352C18.8617 26.1999 19.4448 25.4416 19.7572 24.5659C20.904 24.406 21.9712 23.8989 22.81 23.1154C23.6488 22.3319 24.2171 21.3111 24.4358 20.1955C24.455 20.0988 24.4546 19.9993 24.4346 19.9028C24.4146 19.8062 24.3754 19.7145 24.3192 19.6328C24.263 19.5512 24.191 19.4811 24.1072 19.4268C24.0235 19.3724 23.9296 19.3347 23.831 19.3159H23.8519Z" fill="#EEEEEE"/>
<path d="M15.6765 16.3023C15.6765 16.1033 15.5959 15.9126 15.4525 15.7719C15.3091 15.6313 15.1146 15.5522 14.9118 15.5522C13.7969 15.554 12.7281 15.9892 11.9398 16.7624C11.1514 17.5356 10.7077 18.5838 10.7059 19.6772C10.7059 19.8761 10.7864 20.0669 10.9299 20.2076C11.0733 20.3482 11.2678 20.4272 11.4706 20.4272C11.6734 20.4272 11.8679 20.3482 12.0113 20.2076C12.1547 20.0669 12.2353 19.8761 12.2353 19.6772C12.2353 19.3325 12.3045 18.9912 12.439 18.6727C12.5735 18.3542 12.7707 18.0648 13.0192 17.8211C13.2678 17.5773 13.5628 17.384 13.8875 17.2521C14.2123 17.1201 14.5603 17.0523 14.9118 17.0523C15.1146 17.0523 15.3091 16.9732 15.4525 16.8326C15.5959 16.6919 15.6765 16.5012 15.6765 16.3023Z" fill="#EEEEEE"/>
<path d="M32.1158 10.5H38.3099C38.4994 11.4105 39.0269 12.2196 39.7901 12.7704C40.5533 13.3212 41.4978 13.5744 42.4405 13.481C43.3832 13.3876 44.257 12.9542 44.8925 12.2649C45.5279 11.5755 45.8797 10.6793 45.8797 9.74999C45.8797 8.82068 45.5279 7.9245 44.8925 7.23514C44.257 6.54579 43.3832 6.11239 42.4405 6.01899C41.4978 5.92559 40.5533 6.17882 39.7901 6.72961C39.0269 7.28039 38.4994 8.08948 38.3099 9.00001H32.1158C31.4272 9.00229 30.7595 9.23239 30.2208 9.65309C29.682 10.0738 29.3038 10.6605 29.1473 11.3182C27.8022 10.3385 26.172 9.80793 24.4965 9.80455C24.3644 9.80455 24.2393 9.80455 24.1142 9.80455C23.8236 9.32743 23.4253 8.92202 22.9499 8.61952C22.4746 8.31703 21.9348 8.12549 21.3721 8.05964C20.8095 7.99379 20.2389 8.05539 19.7043 8.23968C19.1697 8.42398 18.6854 8.72607 18.2885 9.12273C17.6131 8.67157 16.8554 8.35212 16.0569 8.18182V5.99999C16.0569 5.60217 16.2181 5.22064 16.5049 4.93933C16.7917 4.65803 17.1807 4.50001 17.5863 4.50001H26.8393C27.0288 5.41054 27.5563 6.21963 28.3195 6.77041C29.0826 7.32119 30.0272 7.57441 30.9699 7.481C31.9126 7.3876 32.7864 6.95422 33.4219 6.26487C34.0573 5.57552 34.4091 4.67931 34.4091 3.75C34.4091 2.82069 34.0573 1.92448 33.4219 1.23513C32.7864 0.545779 31.9126 0.112403 30.9699 0.0189988C30.0272 -0.074405 29.0826 0.178813 28.3195 0.729594C27.5563 1.28037 27.0288 2.08947 26.8393 3H17.5863C16.7751 3 15.9971 3.31607 15.4234 3.87867C14.8498 4.44128 14.5275 5.20434 14.5275 5.99999V8.04545C13.5588 8.07452 12.6094 8.31772 11.7499 8.7569C10.8905 9.19607 10.1432 9.81987 9.56384 10.5818C8.88814 10.3686 8.17126 10.3118 7.46943 10.4159C6.76759 10.52 6.09988 10.7821 5.51867 11.1817C4.93745 11.5814 4.45853 12.1076 4.11946 12.7192C3.78039 13.3308 3.59039 14.0111 3.56437 14.7068C2.72307 15.0141 2.02609 15.6137 1.60575 16.3917C1.18542 17.1697 1.07098 18.072 1.28415 18.9273C0.195037 20.5128 -0.229188 22.449 0.0996671 24.3334C0.428522 26.2178 1.48515 27.9054 3.04992 29.0455V37.5545C2.12154 37.7404 1.29659 38.2577 0.735007 39.0062C0.173426 39.7547 -0.0847795 40.6811 0.010456 41.6057C0.105691 42.5303 0.547577 43.3873 1.25045 44.0105C1.95332 44.6337 2.86711 44.9788 3.81464 44.9788C4.76217 44.9788 5.67594 44.6337 6.37882 44.0105C7.08169 43.3873 7.52357 42.5303 7.61881 41.6057C7.71404 40.6811 7.45585 39.7547 6.89427 39.0062C6.33269 38.2577 5.50773 37.7404 4.57934 37.5545V29.9455C6.13429 30.6054 7.87051 30.7327 9.50823 30.3068C9.91153 31.115 10.5049 31.8176 11.2393 32.3568C11.9737 32.896 12.8283 33.2564 13.7326 33.4082C14.6368 33.56 15.565 33.4989 16.4404 33.23C17.3159 32.9611 18.1137 32.492 18.7682 31.8614C19.4821 32.09 20.2225 32.2298 20.9719 32.2773C21.3404 33.7773 22.3623 34.7523 24.4965 35.5841V38.9932C24.4965 39.7888 24.8188 40.5519 25.3924 41.1145C25.9661 41.6771 26.7441 41.9932 27.5553 41.9932H34.5072C34.6967 42.9037 35.2242 43.7128 35.9874 44.2636C36.7506 44.8144 37.6951 45.0676 38.6378 44.9742C39.5806 44.8808 40.4544 44.4474 41.0898 43.758C41.7252 43.0687 42.0771 42.1725 42.0771 41.2432C42.0771 40.3139 41.7252 39.4177 41.0898 38.7283C40.4544 38.039 39.5806 37.6056 38.6378 37.5122C37.6951 37.4188 36.7506 37.672 35.9874 38.2228C35.2242 38.7736 34.6967 39.5827 34.5072 40.4932H27.5553C27.1497 40.4932 26.7607 40.3351 26.4739 40.0538C26.1871 39.7725 26.0259 39.391 26.0259 38.9932V36.1364C26.5925 36.3902 27.0955 36.7625 27.4997 37.2273C27.7646 37.538 28.0951 37.7885 28.4684 37.9616C28.8417 38.1346 29.2489 38.226 29.6618 38.2295C30.0249 38.2294 30.3843 38.1575 30.7185 38.0182C31.2115 37.8071 31.6316 37.4603 31.9278 37.0198C32.2239 36.5793 32.3834 36.064 32.3869 35.5364C32.3868 35.2535 32.3398 34.9726 32.2479 34.7045C32.0217 33.9909 31.7138 33.3048 31.3302 32.6591C33.0006 31.5382 34.166 29.8287 34.5837 27.8864C35.3747 26.9731 35.8488 25.8367 35.9376 24.6416C36.0263 23.4465 35.725 22.2547 35.0773 21.2386C35.119 21.1432 35.1468 21.0477 35.1746 20.9591H38.3238C38.5133 21.8696 39.0408 22.6787 39.804 23.2295C40.5672 23.7803 41.5117 24.0335 42.4544 23.9401C43.3971 23.8467 44.2709 23.4133 44.9064 22.724C45.5418 22.0346 45.8937 21.1384 45.8937 20.2091C45.8937 19.2798 45.5418 18.3836 44.9064 17.6942C44.2709 17.0049 43.3971 16.5715 42.4544 16.4781C41.5117 16.3847 40.5672 16.6379 39.804 17.1887C39.0408 17.7395 38.5133 18.5486 38.3238 19.4591H35.3206C35.236 18.6737 34.8943 17.9364 34.3466 17.3575C33.7989 16.7786 33.0748 16.3892 32.2826 16.2477C32.055 14.9172 31.4749 13.6686 30.6003 12.6273V11.9454C30.6003 11.5476 30.7614 11.1661 31.0482 10.8848C31.3351 10.6035 31.7241 10.4455 32.1297 10.4455L32.1158 10.5ZM42.057 7.5C42.5107 7.5 42.9543 7.63196 43.3315 7.8792C43.7088 8.12643 44.0028 8.47783 44.1765 8.88896C44.3501 9.30009 44.3955 9.75249 44.307 10.1889C44.2185 10.6254 44 11.0263 43.6792 11.341C43.3583 11.6557 42.9496 11.87 42.5046 11.9568C42.0595 12.0436 41.5983 11.999 41.1791 11.8287C40.7599 11.6584 40.4016 11.3701 40.1495 11C39.8974 10.63 39.7629 10.195 39.7629 9.74999C39.7629 9.15326 40.0046 8.58097 40.4348 8.15901C40.865 7.73706 41.4486 7.5 42.057 7.5ZM30.5864 1.50001C31.0401 1.50001 31.4837 1.63197 31.8609 1.8792C32.2382 2.12644 32.5322 2.47783 32.7059 2.88897C32.8795 3.3001 32.9249 3.7525 32.8364 4.18895C32.7479 4.62541 32.5294 5.02633 32.2086 5.341C31.8877 5.65567 31.4789 5.86996 31.0339 5.95678C30.5889 6.04359 30.1276 5.99902 29.7085 5.82873C29.2893 5.65843 28.931 5.37004 28.6789 5.00003C28.4268 4.63002 28.2922 4.19501 28.2922 3.75C28.2922 3.15326 28.5339 2.58096 28.9642 2.159C29.3944 1.73705 29.9779 1.50001 30.5864 1.50001ZM6.11571 41.25C6.1216 41.7702 5.9435 42.2763 5.61173 42.6823C5.27996 43.0882 4.81502 43.3688 4.29604 43.4764C3.77706 43.5839 3.23611 43.5118 2.76527 43.2722C2.29442 43.0326 1.92276 42.6404 1.71356 42.1624C1.50436 41.6843 1.47054 41.1499 1.61785 40.6501C1.76516 40.1503 2.08449 39.7161 2.52151 39.4212C2.95853 39.1264 3.48624 38.9892 4.01479 39.0329C4.54335 39.0767 5.04011 39.2988 5.42052 39.6614C5.63747 39.8681 5.81059 40.1149 5.9299 40.3876C6.04921 40.6602 6.11235 40.9533 6.11571 41.25ZM38.2334 39C38.6872 39 39.1307 39.132 39.508 39.3792C39.8853 39.6264 40.1793 39.9778 40.3529 40.389C40.5266 40.8001 40.572 41.2525 40.4835 41.689C40.395 42.1254 40.1765 42.5263 39.8556 42.841C39.5348 43.1557 39.126 43.37 38.681 43.4568C38.236 43.5436 37.7747 43.499 37.3555 43.3287C36.9363 43.1584 36.578 42.87 36.326 42.5C36.0739 42.13 35.9393 41.695 35.9393 41.25C35.9393 40.9545 35.9987 40.6619 36.114 40.389C36.2292 40.116 36.3982 39.8679 36.6113 39.659C36.8243 39.4501 37.0772 39.2843 37.3555 39.1713C37.6339 39.0582 37.9322 39 38.2334 39ZM42.057 18C42.5107 18 42.9543 18.132 43.3315 18.3792C43.7088 18.6264 44.0028 18.9778 44.1765 19.389C44.3501 19.8001 44.3955 20.2525 44.307 20.689C44.2185 21.1254 44 21.5263 43.6792 21.841C43.3583 22.1557 42.9496 22.3699 42.5046 22.4568C42.0595 22.5436 41.5983 22.499 41.1791 22.3287C40.7599 22.1584 40.4016 21.87 40.1495 21.5C39.8974 21.13 39.7629 20.695 39.7629 20.25C39.7629 19.6533 40.0046 19.081 40.4348 18.659C40.865 18.2371 41.4486 18 42.057 18ZM33.819 19.8886C33.8188 20.2613 33.7206 20.6277 33.534 20.9523C33.3052 21.3457 32.9579 21.66 32.5398 21.8523C32.3555 21.9364 32.2127 22.0888 32.143 22.2762C32.0732 22.4635 32.0822 22.6703 32.1679 22.8511C32.2537 23.032 32.4091 23.172 32.6001 23.2404C32.7911 23.3088 33.002 23.3 33.1864 23.2159C33.5041 23.0686 33.7989 22.8781 34.0623 22.65C34.3829 23.3817 34.4826 24.1883 34.3495 24.9739C34.2164 25.7595 33.8562 26.4911 33.3115 27.0818C32.6758 27.7565 31.8343 28.2109 30.913 28.3769C29.9918 28.5428 29.0405 28.4114 28.2019 28.0023C27.9769 27.8925 27.7627 27.7624 27.5623 27.6136C27.93 27.1561 28.1573 26.6054 28.2176 26.0258C28.278 25.4463 28.1688 24.8619 27.9029 24.3409C27.8573 24.2514 27.7941 24.1715 27.717 24.1059C27.6399 24.0403 27.5504 23.9903 27.4535 23.9586C27.3567 23.927 27.2545 23.9143 27.1527 23.9214C27.0508 23.9285 26.9514 23.9552 26.8602 24C26.7689 24.0448 26.6875 24.1067 26.6206 24.1824C26.5537 24.258 26.5027 24.3458 26.4704 24.4408C26.4381 24.5357 26.4252 24.636 26.4325 24.7359C26.4397 24.8357 26.4669 24.9332 26.5126 25.0227C26.6855 25.3626 26.728 25.7521 26.6323 26.1202C26.5366 26.4882 26.309 26.8102 25.9912 27.0273C25.8007 27.1526 25.5855 27.2371 25.3595 27.2754C25.1335 27.3137 24.9018 27.305 24.6795 27.2497C24.4572 27.1943 24.2492 27.0937 24.0692 26.9544C23.8891 26.8151 23.741 26.6401 23.6345 26.4409C23.5423 26.2601 23.3806 26.1226 23.1851 26.0586C22.9895 25.9947 22.7761 26.0096 22.5917 26.1C22.4073 26.1904 22.2671 26.349 22.2019 26.5408C22.1367 26.7326 22.1519 26.9419 22.2441 27.1227C22.5976 27.8295 23.2162 28.3747 23.9704 28.6442C24.7247 28.9136 25.5559 28.8864 26.2901 28.5682C26.643 28.882 27.0355 29.1502 27.458 29.3659C28.1922 29.7383 29.0001 29.95 29.8258 29.9865C30.6516 30.023 31.4755 29.8834 32.2409 29.5773C31.7735 30.3453 31.1406 31.0038 30.3865 31.5067C29.6323 32.0096 28.7752 32.3447 27.8751 32.4886C27.6814 32.5141 27.505 32.6113 27.3821 32.7604C27.2592 32.9094 27.1991 33.0989 27.2143 33.29C27.2294 33.4811 27.3185 33.6593 27.4634 33.788C27.6083 33.9166 27.7979 33.986 27.9933 33.9818H28.1184C28.7449 33.8829 29.3566 33.7088 29.9398 33.4636C30.2751 34.0199 30.5434 34.6126 30.7393 35.2296C30.78 35.3459 30.8012 35.4679 30.8019 35.5909C30.802 35.8263 30.7316 36.0565 30.5993 36.2529C30.467 36.4493 30.2788 36.6032 30.058 36.6955C29.8066 36.7923 29.5303 36.8082 29.2691 36.7408C29.0079 36.6734 28.7753 36.5261 28.6051 36.3204C27.8874 35.4948 26.9482 34.883 25.8938 34.5545C23.6692 33.825 22.8211 33.1568 22.4874 32.2773C23.055 32.2228 23.616 32.1155 24.1628 31.9568C24.2623 31.9308 24.3554 31.8853 24.4365 31.8231C24.5176 31.761 24.5851 31.6833 24.6349 31.595C24.6847 31.5066 24.7158 31.4093 24.7263 31.3088C24.7369 31.2084 24.7266 31.1069 24.6962 31.0104C24.6657 30.9139 24.6157 30.8245 24.5492 30.7475C24.4826 30.6704 24.4009 30.6073 24.3089 30.562C24.2169 30.5167 24.1165 30.49 24.0138 30.4837C23.911 30.4773 23.808 30.4914 23.7109 30.525C23.1618 30.6907 22.5949 30.7936 22.0216 30.8318C20.9136 30.9174 19.8004 30.7518 18.7682 30.3477C18.6199 30.2995 18.4607 30.2937 18.3092 30.3311C18.1577 30.3686 18.0203 30.4477 17.9131 30.5591C17.4237 31.1193 16.7921 31.5428 16.0822 31.7866C15.3723 32.0305 14.6093 32.086 13.8705 31.9476C13.1317 31.8091 12.4433 31.4817 11.875 30.9984C11.3067 30.5151 10.8788 29.8932 10.6344 29.1955C10.4308 28.6167 10.3589 28.0011 10.4237 27.3921C10.4886 26.7832 10.6887 26.1955 11.0098 25.6705C11.0619 25.5858 11.0964 25.492 11.1115 25.3943C11.1265 25.2966 11.1218 25.197 11.0976 25.101C11.0734 25.0051 11.0302 24.9148 10.9704 24.8353C10.9106 24.7557 10.8354 24.6885 10.7491 24.6375C10.6629 24.5865 10.5672 24.5526 10.4676 24.5378C10.368 24.523 10.2663 24.5277 10.1685 24.5514C10.0707 24.5751 9.97868 24.6175 9.89758 24.6762C9.81649 24.7348 9.74797 24.8086 9.69593 24.8932C9.44841 25.3017 9.25454 25.7393 9.11892 26.1955H9.04245C8.61591 26.1937 8.20746 26.0262 7.9065 25.7298C7.60554 25.4333 7.43656 25.032 7.43657 24.6136C7.43658 24.5158 7.41672 24.4189 7.37812 24.3287C7.33952 24.2384 7.28297 24.1566 7.21177 24.0881C7.14057 24.0195 7.05615 23.9656 6.96345 23.9294C6.87075 23.8932 6.77163 23.8755 6.67186 23.8773C6.57053 23.8782 6.47036 23.8986 6.37709 23.9375C6.28381 23.9763 6.19925 24.0328 6.12824 24.1038C6.05723 24.1747 6.00116 24.2586 5.96323 24.3508C5.92529 24.4429 5.90624 24.5415 5.90715 24.6409C5.90789 25.4288 6.21697 26.1864 6.77062 26.7573C7.32428 27.3282 8.08025 27.6689 8.88256 27.7091C8.88256 27.7568 8.88256 27.8046 8.88256 27.8523C8.88232 28.2277 8.91958 28.6022 8.99379 28.9704C7.87998 29.2395 6.71112 29.1923 5.62361 28.8345C4.5361 28.4766 3.57477 27.8228 2.8518 26.9493C2.12884 26.0758 1.67405 25.0188 1.5405 23.9014C1.40694 22.784 1.60013 21.6524 2.09752 20.6386C2.34936 20.9247 2.64483 21.1708 2.97345 21.3682C3.05933 21.4234 3.15567 21.4611 3.25672 21.479C3.35777 21.4969 3.46147 21.4947 3.56162 21.4724C3.66177 21.4502 3.75634 21.4084 3.83966 21.3495C3.92299 21.2907 3.99337 21.216 4.04662 21.1299C4.09986 21.0437 4.13488 20.948 4.14958 20.8483C4.16427 20.7486 4.15834 20.6471 4.13215 20.5497C4.10596 20.4523 4.06003 20.3611 3.99712 20.2815C3.93421 20.2019 3.8556 20.1355 3.76597 20.0864C3.4874 19.9223 3.24925 19.6999 3.06859 19.4351C2.88793 19.1702 2.76923 18.8694 2.72098 18.5543C2.67272 18.2392 2.69611 17.9175 2.78947 17.6122C2.88284 17.307 3.04386 17.0258 3.26102 16.7888C3.47817 16.5517 3.74608 16.3647 4.04557 16.2411C4.34505 16.1175 4.66869 16.0604 4.99332 16.0739C5.31794 16.0873 5.63552 16.171 5.92331 16.3189C6.21109 16.4669 6.46197 16.6754 6.65796 16.9295C6.77872 17.0896 6.95936 17.196 7.16014 17.2254C7.36091 17.2548 7.56537 17.2048 7.72855 17.0864C7.89172 16.9679 8.00023 16.7908 8.03022 16.5938C8.0602 16.3969 8.00921 16.1964 7.88845 16.0364C7.56464 15.6052 7.14717 15.25 6.66625 14.9965C6.18533 14.743 5.65298 14.5975 5.10769 14.5705C5.16178 14.162 5.30162 13.769 5.51839 13.4162C5.73516 13.0635 6.02415 12.7586 6.36712 12.5209C6.71008 12.2832 7.09956 12.1178 7.51098 12.0352C7.9224 11.9526 8.34682 11.9545 8.75743 12.0409C8.64903 12.2983 8.55845 12.5625 8.48631 12.8318C8.45993 12.9276 8.45319 13.0275 8.46646 13.1259C8.47974 13.2242 8.51277 13.319 8.56365 13.4047C8.61453 13.4904 8.68225 13.5654 8.76287 13.6253C8.8435 13.6852 8.93543 13.7288 9.03336 13.7536C9.13129 13.7784 9.23326 13.7839 9.33337 13.7698C9.43348 13.7557 9.52974 13.7222 9.61658 13.6714C9.70341 13.6205 9.7791 13.5533 9.83926 13.4735C9.89942 13.3938 9.94286 13.3031 9.96706 13.2068C10.1644 12.4651 10.541 11.781 11.065 11.2122C11.5889 10.6435 12.2449 10.2069 12.9773 9.93934C13.7097 9.67181 14.497 9.58124 15.2726 9.67527C16.0483 9.7693 16.7894 10.0452 17.4334 10.4795C17.2668 10.8944 17.1796 11.3359 17.1762 11.7818C17.1762 11.8803 17.1959 11.9778 17.2344 12.0688C17.2728 12.1598 17.3291 12.2425 17.4001 12.3122C17.4712 12.3818 17.5555 12.437 17.6482 12.4747C17.741 12.5124 17.8405 12.5318 17.9409 12.5318C18.0413 12.5318 18.1407 12.5124 18.2335 12.4747C18.3263 12.437 18.4106 12.3818 18.4816 12.3122C18.5526 12.2425 18.6089 12.1598 18.6474 12.0688C18.6858 11.9778 18.7056 11.8803 18.7056 11.7818C18.7056 11.2086 18.9378 10.6588 19.351 10.2535C19.7643 9.84818 20.3249 9.62045 20.9093 9.62045C21.4938 9.62045 22.0543 9.84818 22.4676 10.2535C22.8809 10.6588 23.1131 11.2086 23.1131 11.7818C23.1131 11.9807 23.1937 12.1715 23.3371 12.3122C23.4805 12.4528 23.675 12.5318 23.8778 12.5318C24.0806 12.5318 24.2751 12.4528 24.4185 12.3122C24.5619 12.1715 24.6425 11.9807 24.6425 11.7818C24.6363 11.6448 24.6224 11.5082 24.6008 11.3727C26.0466 11.403 27.4393 11.9129 28.5516 12.8194C29.6639 13.7258 30.4302 14.9752 30.7254 16.3636C30.2375 16.4784 29.7786 16.6895 29.3767 16.9841C29.2964 17.0432 29.2287 17.1172 29.1776 17.202C29.1264 17.2867 29.0927 17.3805 29.0785 17.478C29.0643 17.5755 29.0699 17.6748 29.0948 17.7702C29.1197 17.8656 29.1635 17.9553 29.2238 18.0341C29.284 18.1129 29.3595 18.1793 29.446 18.2294C29.5324 18.2796 29.628 18.3126 29.7274 18.3265C29.8268 18.3405 29.9281 18.3351 30.0253 18.3106C30.1226 18.2862 30.2141 18.2432 30.2944 18.1841C30.6213 17.9408 31.0111 17.7922 31.4197 17.7551C31.8283 17.718 32.2394 17.7939 32.6062 17.9742C32.9731 18.1544 33.2812 18.4319 33.4955 18.7751C33.7099 19.1183 33.8219 19.5135 33.819 19.9159V19.8886Z" fill="#EEEEEE"/>
</g>
<defs>
<clipPath id="clip0">
<rect width="188" height="45" fill="white"/>
</clipPath>
</defs>
</svg>
