<svg id="Слой_1" data-name="Слой 1" xmlns="http://www.w3.org/2000/svg" viewBox="0 0 221 221"><defs><style>.cls-1{fill:#efedde;}.cls-2{fill:#1e252e;}</style></defs><title>Mayakova_icons</title><circle class="cls-1" cx="110.5" cy="110.5" r="110.5"/><g id="Page-1"><g id="_037---Brain-Wired" data-name="037---Brain-Wired"><path id="Shape" class="cls-2" d="M305,210.61a2.43,2.43,0,0,0-2.84,1.93,12.8,12.8,0,0,1-22.08,6.2,2.43,2.43,0,1,0-3.61,3.26,17.68,17.68,0,0,0,10.3,5.57,9.64,9.64,0,0,1-8.41,4.87,2.43,2.43,0,1,0,0,4.86,14.46,14.46,0,0,0,13.69-9.68,17.74,17.74,0,0,0,14.87-14.18,2.43,2.43,0,0,0-1.93-2.84Z" transform="translate(-185 -114)"/><path id="Shape-2" data-name="Shape" class="cls-2" d="M279,200.85a2.43,2.43,0,0,0-2.43-2.43,13.39,13.39,0,0,0-13.37,13.37,2.43,2.43,0,1,0,4.86,0,8.51,8.51,0,0,1,8.51-8.51A2.43,2.43,0,0,0,279,200.85Z" transform="translate(-185 -114)"/><path id="Shape-3" data-name="Shape" class="cls-2" d="M331.3,182H351a12.16,12.16,0,1,0,0-4.86H331.3a9.72,9.72,0,0,0-9.45,7.51,24.88,24.88,0,0,0-14.78-4.91c-.41,0-.81,0-1.22.07a11.78,11.78,0,0,0-18.52-2.22,20.24,20.24,0,0,0-7.09-3v-7.13a4.86,4.86,0,0,1,4.86-4.86h29.42a12.16,12.16,0,1,0,0-4.86H285.11a9.72,9.72,0,0,0-9.72,9.72v6.69a20.47,20.47,0,0,0-15.77,8.23,14.61,14.61,0,0,0-19.07,13.37,11.65,11.65,0,0,0-7.24,13.69,24.09,24.09,0,0,0,5.62,32.79V269.8a12.16,12.16,0,1,0,4.86,0V245.06a24,24,0,0,0,15.67,1.18,18.4,18.4,0,0,0,29.33,5,28.49,28.49,0,0,0,7,1.35c1.17,4.86,4.47,8,11.21,10.73v11.07a9.72,9.72,0,0,0,9.72,9.72h22.12a12.16,12.16,0,1,0,0-4.86H316.72a4.86,4.86,0,0,1-4.86-4.86V265.2a13.56,13.56,0,0,1,4.69,3.54,9.07,9.07,0,0,0,6.88,3.24,8.6,8.6,0,0,0,3.36-.69,8.75,8.75,0,0,0,5.31-8,8.47,8.47,0,0,0-.43-2.69,32.09,32.09,0,0,0-2.92-6.56,25,25,0,0,0,10.35-15.47A18.3,18.3,0,0,0,340.67,217c.12-.3.21-.61.31-.91h10a12.16,12.16,0,1,0,0-4.86h-9.55a11.85,11.85,0,0,0-9.66-10.41,25,25,0,0,0-5.35-11.74V186.9A4.86,4.86,0,0,1,331.3,182Zm31.6-9.72a7.29,7.29,0,1,1-7.29,7.29A7.29,7.29,0,0,1,362.91,172.31Zm-36.47-19.45a7.29,7.29,0,1,1-7.29,7.29A7.29,7.29,0,0,1,326.44,152.86Zm-77.8,128.85a7.29,7.29,0,1,1-2.14-5.16A7.29,7.29,0,0,1,248.64,281.71Zm102.11-7.29a7.29,7.29,0,1,1-7.29,7.29A7.29,7.29,0,0,1,350.75,274.42Zm12.16-68.07a7.29,7.29,0,1,1-7.29,7.29A7.29,7.29,0,0,1,362.91,206.35Zm-26.2,6.11a7,7,0,0,1-.9,3.46,7.11,7.11,0,0,1-3.16,2.92,2.43,2.43,0,0,0,2.06,4.4,11.86,11.86,0,0,0,2.78-1.84,13.48,13.48,0,0,1-2.4,14.37l0,.05a13.76,13.76,0,0,1-16.24,3,12.89,12.89,0,0,1-2-1.26,9.94,9.94,0,0,0,1.09-10.62,2.43,2.43,0,1,0-4.35,2.17,5.13,5.13,0,0,1-1.66,6.5,5.2,5.2,0,0,1-7.49-1.91,2.43,2.43,0,0,0-4.35,2.18,9.87,9.87,0,0,0,12.86,4.68,17.66,17.66,0,0,0,3.71,2.6,18.16,18.16,0,0,0,15.21.68,20,20,0,0,1-13.87,9.43,2.43,2.43,0,0,0,.38,4.83,2.35,2.35,0,0,0,.39,0,24.64,24.64,0,0,0,5.79-1.68,27.08,27.08,0,0,1,2.54,5.73,3.67,3.67,0,0,1,.19,1.18,3.89,3.89,0,0,1-2.36,3.57,4,4,0,0,1-4.62-1.22,18.81,18.81,0,0,0-8.63-5.73c-7.08-2.37-9.76-4.54-10.82-7.39a28.57,28.57,0,0,0,5.32-1,2.43,2.43,0,0,0-1.43-4.65,23.74,23.74,0,0,1-5.37,1A23,23,0,0,1,289,246.24a2.6,2.6,0,0,0-2.73.68,13.58,13.58,0,0,1-23.15-4.45v0a13.6,13.6,0,0,1,1.2-11.43,2.44,2.44,0,0,0-4.17-2.52,18.29,18.29,0,0,0-1.84,4.22c-.09,0-.17,0-.24,0a5.13,5.13,0,0,1-5.11-5.13v-.08a2.4,2.4,0,0,0-2.43-2.39,2.46,2.46,0,0,0-2.43,2.47,10,10,0,0,0,9.46,9.94c0,.15,0,.3,0,.46a18.62,18.62,0,0,0,.36,3.63,19.24,19.24,0,0,1-21.91-27,11.87,11.87,0,0,0,2.77,2.36,2.43,2.43,0,1,0,2.51-4.16,7,7,0,1,1,9.19-10.23,2.43,2.43,0,0,0,3.9-2.9,11.72,11.72,0,0,0-8.81-4.74,9.65,9.65,0,0,1,11.6-8.2,20.07,20.07,0,0,0-.86,2.56,2.43,2.43,0,1,0,4.7,1.22,15.38,15.38,0,0,1,23.74-8.77,11.76,11.76,0,0,0-.81,4.23,2.43,2.43,0,1,0,4.86,0,7,7,0,1,1,14,0,2.43,2.43,0,1,0,4.86,0,12,12,0,0,0-.13-1.33,20.34,20.34,0,0,1,19.39,16.29,11.74,11.74,0,0,0-4.29,2,2.43,2.43,0,0,0,2.92,3.89,7,7,0,0,1,11.2,5.62Z" transform="translate(-185 -114)"/></g></g></svg>